<?xml version="1.0" encoding="UTF-8"?>
<svg xmlns="http://www.w3.org/2000/svg" xmlns:xlink="http://www.w3.org/1999/xlink" width="100pt" height="100pt" viewBox="0 0 100 100" version="1.1">
<g id="surface149561">
<path style=" stroke:none;fill-rule:nonzero;fill:rgb(90.196078%,0%,0%);fill-opacity:1;" d="M 39.492188 5.992188 C 24.148438 6.203125 10.0625 16.289062 5.484375 31.78125 C 1.71875 44.492188 5.328125 57.609375 13.789062 66.625 L 4.742188 94 L 24.054688 94 L 29.085938 76.273438 C 29.320312 76.351562 29.546875 76.445312 29.78125 76.523438 C 31.03125 76.890625 32.28125 77.148438 33.53125 77.367188 L 38.789062 94 L 92.648438 94 L 96.851562 78 L 80.023438 78 L 88.960938 44 L 75.882812 44 C 76.804688 27.703125 66.546875 12.3125 50.21875 7.484375 C 46.640625 6.421875 43.03125 5.945312 39.492188 5.992188 Z M 39.5625 10 C 42.703125 9.953125 45.90625 10.375 49.085938 11.3125 C 63.648438 15.625 72.789062 29.445312 71.875 44 L 67.867188 44 C 68.046875 41.554688 67.9375 39.132812 67.484375 36.78125 C 65.132812 37.046875 61.664062 37.242188 57.40625 36.992188 L 55.40625 44.453125 L 52.15625 54.875 C 49.914062 59.609375 47.796875 63.171875 46.164062 65.234375 L 44.6875 60.210938 C 45.289062 59.320312 45.890625 58.382812 46.46875 57.367188 C 45.515625 56.890625 44.5 56.4375 43.4375 55.992188 L 42.007812 51.15625 C 44.273438 51.984375 46.421875 52.867188 48.328125 53.804688 C 49.265625 51.804688 50.125 49.632812 50.890625 47.3125 L 46.078125 45.882812 L 27.96875 40.53125 C 27.664062 41.710938 27.414062 42.859375 27.1875 44 L 23.125 44 C 23.40625 42.484375 23.726562 40.953125 24.132812 39.390625 L 12.6875 36 C 11.84375 39.789062 11.820312 43.59375 12.515625 47.21875 C 14.421875 47.007812 17.101562 46.851562 20.304688 46.9375 L 18.96875 50.960938 C 16.875 50.953125 14.984375 51.015625 13.578125 51.148438 C 14.367188 53.421875 15.453125 55.570312 16.78125 57.570312 L 15.25 62.210938 C 8.796875 54.289062 6.203125 43.429688 9.3125 32.914062 C 13.382812 19.171875 25.921875 10.195312 39.5625 10 Z M 38.773438 14.054688 C 37.179688 14.125 35.609375 14.3125 34.070312 14.640625 C 34.6875 15.125 35.4375 15.671875 36.296875 16.25 C 37.109375 15.4375 37.9375 14.6875 38.773438 14.054688 Z M 45.898438 15.039062 C 44.070312 15.289062 42 16.4375 39.898438 18.359375 C 41.21875 19.039062 42.710938 19.695312 44.34375 20.28125 Z M 29.570312 16.046875 C 27.148438 17.023438 24.875 18.335938 22.8125 19.945312 C 24.476562 21.257812 26.882812 22.984375 29.984375 24.757812 C 31.125 22.742188 32.335938 20.90625 33.617188 19.28125 C 31.617188 17.90625 30.257812 16.703125 29.570312 16.046875 Z M 49.726562 16.171875 L 48.179688 21.414062 C 49.867188 21.8125 51.46875 22.070312 52.960938 22.21875 C 52.234375 19.46875 51.125 17.382812 49.726562 16.171875 Z M 56.242188 19.226562 C 56.59375 20.210938 56.882812 21.289062 57.125 22.414062 C 58.164062 22.398438 59.085938 22.351562 59.859375 22.28125 C 58.757812 21.164062 57.539062 20.148438 56.242188 19.226562 Z M 37.0625 21.398438 C 35.851562 22.90625 34.65625 24.65625 33.53125 26.632812 C 35.898438 27.796875 38.570312 28.914062 41.5 29.882812 L 43.210938 24.125 C 40.882812 23.3125 38.835938 22.359375 37.0625 21.398438 Z M 19.78125 22.664062 C 17.226562 25.328125 15.179688 28.53125 13.8125 32.164062 L 25.273438 35.554688 C 26.117188 33 27.0625 30.570312 28.125 28.320312 C 24.414062 26.21875 21.617188 24.15625 19.78125 22.664062 Z M 47.039062 25.257812 L 45.335938 31.023438 C 48.328125 31.804688 51.171875 32.320312 53.789062 32.632812 C 53.921875 30.359375 53.875 28.242188 53.679688 26.3125 C 51.664062 26.164062 49.429688 25.84375 47.039062 25.257812 Z M 62.875 25.90625 C 61.9375 26.078125 60.148438 26.351562 57.726562 26.414062 C 57.90625 28.46875 57.921875 30.671875 57.78125 32.984375 C 61.351562 33.1875 64.3125 33.054688 66.429688 32.851562 C 65.5625 30.382812 64.375 28.039062 62.875 25.90625 Z M 31.664062 30.195312 C 30.734375 32.195312 29.875 34.367188 29.101562 36.6875 L 38.648438 39.515625 L 40.367188 33.71875 C 37.15625 32.664062 34.242188 31.460938 31.664062 30.195312 Z M 44.203125 34.851562 L 42.484375 40.648438 L 52.03125 43.46875 C 52.648438 41.109375 53.109375 38.8125 53.40625 36.632812 C 50.570312 36.289062 47.46875 35.71875 44.203125 34.851562 Z M 24.164062 48 L 36.90625 48 L 47.414062 83.585938 L 49.375 77.28125 L 58.484375 48 L 68.132812 48 L 56.09375 90 L 41.71875 90 L 30.8125 55.515625 L 21.03125 90 L 10.28125 90 Z M 72.296875 48 L 83.773438 48 L 74.835938 82 L 91.664062 82 L 89.5625 90 L 60.257812 90 Z M 72.296875 48 "/>
</g>
</svg>
